<?xml version="1.0" encoding="iso-8859-1"?>
<!-- Generator: Adobe Illustrator 19.0.0, SVG Export Plug-In . SVG Version: 6.00 Build 0)  -->
<svg version="1.1" id="Capa_1" xmlns="http://www.w3.org/2000/svg" xmlns:xlink="http://www.w3.org/1999/xlink" x="0px" y="0px"
	 viewBox="0 0 512 512" style="enable-background:new 0 0 512 512;" xml:space="preserve">
<g>
	<g>
		<path d="M504.5,0H7.5C3.358,0,0,3.358,0,7.5v497c0,4.142,3.358,7.5,7.5,7.5h497c4.143,0,7.5-3.358,7.5-7.5V7.5
			C512,3.358,508.643,0,504.5,0z M497,497H15V15h482V497z"/>
	</g>
</g>
<g>
	<g>
		<path d="M474.5,30h-437c-4.142,0-7.5,3.358-7.5,7.5v45c0,4.142,3.358,7.5,7.5,7.5c4.142,0,7.5-3.358,7.5-7.5V45h422v422H45V112.5
			c0-4.142-3.358-7.5-7.5-7.5c-4.142,0-7.5,3.358-7.5,7.5v362c0,4.142,3.358,7.5,7.5,7.5h437c4.143,0,7.5-3.358,7.5-7.5v-437
			C482,33.358,478.643,30,474.5,30z"/>
	</g>
</g>
<g>
	<g>
		<path d="M333,190c0-42.458-34.542-77-77-77s-77,34.542-77,77v16.5c0,18.317,6.367,35.64,18.063,49.5
			C185.367,269.86,179,287.183,179,305.5V322c0,42.458,34.542,77,77,77s77-34.542,77-77v-16.5c0-18.318-6.366-35.641-18.063-49.5
			C326.634,242.141,333,224.818,333,206.5V190z M318,206.5c0,16.706-6.584,32.387-18.539,44.155
			c-1.432,1.41-2.238,3.335-2.238,5.345s0.807,3.935,2.238,5.345C311.416,273.113,318,288.794,318,305.5V322
			c0,34.187-27.813,62-62,62s-62-27.813-62-62v-16.5c0-16.705,6.583-32.386,18.539-44.155c1.432-1.41,2.238-3.335,2.238-5.345
			s-0.807-3.935-2.238-5.345C200.583,238.886,194,223.205,194,206.5V190c0-34.187,27.813-62,62-62s62,27.813,62,62V206.5z"/>
	</g>
</g>
<g>
	<g>
		<path d="M256,268.5c-20.402,0-37,16.598-37,37V322c0,20.402,16.598,37,37,37c20.402,0,37-16.598,37-37v-16.5
			C293,285.098,276.402,268.5,256,268.5z M278,322c0,12.131-9.869,22-22,22c-12.131,0-22-9.869-22-22v-16.5c0-12.131,9.869-22,22-22
			s22,9.869,22,22V322z"/>
	</g>
</g>
<g>
	<g>
		<path d="M256,153c-20.402,0-37,16.598-37,37v16.5c0,20.402,16.598,37,37,37c20.402,0,37-16.598,37-37V190
			C293,169.598,276.402,153,256,153z M278,206.5c0,12.131-9.869,22-22,22c-12.131,0-22-9.869-22-22V190c0-12.131,9.869-22,22-22
			s22,9.869,22,22V206.5z"/>
	</g>
</g>
<g>
</g>
<g>
</g>
<g>
</g>
<g>
</g>
<g>
</g>
<g>
</g>
<g>
</g>
<g>
</g>
<g>
</g>
<g>
</g>
<g>
</g>
<g>
</g>
<g>
</g>
<g>
</g>
<g>
</g>
</svg>
