<?xml version="1.0" encoding="utf-8"?>
<!-- Generator: Adobe Illustrator 23.1.1, SVG Export Plug-In . SVG Version: 6.00 Build 0)  -->
<svg version="1.1" id="Layer_1" xmlns="http://www.w3.org/2000/svg" xmlns:xlink="http://www.w3.org/1999/xlink" x="0px" y="0px"
	 viewBox="0 0 512 512" style="enable-background:new 0 0 512 512;" xml:space="preserve">
<style type="text/css">
	.st0{fill:#FFFFFF;}
</style>
<path class="st0" d="M342.6,452.5l46.6-68.5H440c6.1,0,10-6.6,7-11.9l-22.5-40l54.1-79.5c2.9-4.3,1.1-10.1-3.7-12l-80.6-31.3
	l21.5-102.5c1.3-6.2-4.8-11.4-10.7-9.1l-92,35.7L263,44.1c-3-5.4-10.9-5.5-14,0L199,133.4l-92-35.7c-5.9-2.3-12,2.9-10.7,9.1
	l21.5,102.5l-80.6,31.3c-4.8,1.9-6.6,7.7-3.7,12l54.1,79.5l-22.5,40c-3,5.3,0.9,11.9,7,11.9h50.8l46.6,68.5
	c4.9,7.2,16.2,2.4,14.4-6.1L170.8,384h170.5l-13.1,62.3C326.4,454.9,337.7,459.7,342.6,452.5L342.6,452.5z M426.3,368h-26.3
	l14.4-21.2L426.3,368z M380.7,368H361l17.8-84.8l26.9,48L380.7,368z M459.7,251.8l-43.9,64.6l-32-57l7.2-34.3L459.7,251.8z
	 M371.9,238.2L357.2,212l18.7,7.3L371.9,238.2z M397.1,118l-17.9,85.4l-34.3-13.3L321,147.5L397.1,118z M321.4,181l-43.3-16.8
	l27.8-10.8L321.4,181z M256,64.4l42,74.9l-42,16.3l-42-16.3L256,64.4z M233.9,164.2L190.6,181l15.5-27.6L233.9,164.2z M114.9,118
	l76.1,29.6l-23.9,42.6l-34.3,13.3L114.9,118z M136.2,219.3l18.7-7.3l-14.7,26.2L136.2,219.3z M52.3,251.8l68.7-26.7l7.2,34.3l-32,57
	L52.3,251.8z M133.3,283.2l17.8,84.8h-19.7l-25-36.8L133.3,283.2z M85.7,368l11.9-21.2L112,368H85.7z M159.9,410l-17.7-26h12.2
	L159.9,410z M167.4,368l-22.3-106l33.2-59.1l77.7-30.2l77.7,30.2l33.2,59.1l-22.3,106H167.4z M369.9,384l-17.7,26l5.5-26H369.9z"/>
<path class="st0" d="M437,75C337-25,175.1-25,75,75C-25,175.1-25,337,75,437c86.7,86.7,218.6,97.6,316.9,36c3.7-2.3,4.9-7.3,2.5-11
	c-2.3-3.7-7.3-4.9-11-2.5C345.3,483.3,301.3,496,256,496c-132.3,0-240-107.6-240-240s107.6-240,240-240s240,107.6,240,240
	c0,60.6-22.7,118.5-63.8,162.9c-4.7,5.1-1.1,13.4,5.9,13.4c2.4,0,4.5-1,6-2.7C535.7,330.5,535.9,173.9,437,75L437,75z"/>
<path class="st0" d="M410.5,439.6c-0.6,0.5-1.3,1.1-2.1,1.7c-5.7,4.8-2.3,14.1,5.1,14.1c3.2,0,4.9-1.6,7.4-3.7
	c3.4-2.9,3.7-7.9,0.9-11.3C418.9,437.1,413.9,436.7,410.5,439.6L410.5,439.6z"/>
</svg>
