<?xml version="1.0" encoding="utf-8"?>
<!-- Generator: Adobe Illustrator 23.1.1, SVG Export Plug-In . SVG Version: 6.00 Build 0)  -->
<svg version="1.1" id="Capa_1" xmlns="http://www.w3.org/2000/svg" xmlns:xlink="http://www.w3.org/1999/xlink" x="0px" y="0px"
	 viewBox="0 0 512 512" style="enable-background:new 0 0 512 512;" xml:space="preserve">
<style type="text/css">
	.st0{fill:#FFFFFF;}
</style>
<g>
	<g>
		<path class="st0" d="M504.5,0H7.5C3.4,0,0,3.4,0,7.5v497c0,4.1,3.4,7.5,7.5,7.5h497c4.1,0,7.5-3.4,7.5-7.5V7.5
			C512,3.4,508.6,0,504.5,0z M497,497H15V15h482V497z"/>
	</g>
</g>
<g>
	<g>
		<path class="st0" d="M474.5,30h-437c-4.1,0-7.5,3.4-7.5,7.5v45c0,4.1,3.4,7.5,7.5,7.5s7.5-3.4,7.5-7.5V45h422v422H45V112.5
			c0-4.1-3.4-7.5-7.5-7.5s-7.5,3.4-7.5,7.5v362c0,4.1,3.4,7.5,7.5,7.5h437c4.1,0,7.5-3.4,7.5-7.5v-437C482,33.4,478.6,30,474.5,30z"
			/>
	</g>
</g>
<g>
	<g>
		<path class="st0" d="M256,228.5h-15.5l13-60.5h52c15.2,0,27.5-12.3,27.5-27.5S320.7,113,305.5,113h-74.2
			c-12.9,0-24.2,9.1-26.9,21.7l-24.7,115.5c-1.7,8.2,0.3,16.6,5.5,23.1c5.2,6.5,13,10.2,21.4,10.2H256c12.1,0,22,9.9,22,22V322
			c0,12.1-9.9,22-22,22c-12.1,0-22-9.9-22-22c0-15.2-12.3-27.5-27.5-27.5S179,306.8,179,322c0,42.5,34.5,77,77,77s77-34.5,77-77
			v-16.5C333,263,298.5,228.5,256,228.5z M318,322c0,34.2-27.8,62-62,62s-62-27.8-62-62c0-6.9,5.6-12.5,12.5-12.5S219,315.1,219,322
			c0,20.4,16.6,37,37,37s37-16.6,37-37v-16.5c0-20.4-16.6-37-37-37h-49.5c-3.8,0-7.3-1.7-9.7-4.6c-2.4-3-3.3-6.8-2.5-10.5L219,137.9
			c1.2-5.7,6.4-9.9,12.2-9.9h74.2c6.9,0,12.5,5.6,12.5,12.5s-5.6,12.5-12.5,12.5h-58.1c-3.5,0-6.6,2.5-7.3,5.9l-16.2,75.5
			c-0.5,2.2,0.1,4.5,1.5,6.3c1.4,1.8,3.6,2.8,5.8,2.8H256c34.2,0,62,27.8,62,62V322z"/>
	</g>
</g>
</svg>
