<?xml version="1.0" encoding="utf-8"?>
<!-- Generator: Adobe Illustrator 23.1.1, SVG Export Plug-In . SVG Version: 6.00 Build 0)  -->
<svg version="1.1" id="Capa_1" xmlns="http://www.w3.org/2000/svg" xmlns:xlink="http://www.w3.org/1999/xlink" x="0px" y="0px"
	 viewBox="0 0 512 512" style="enable-background:new 0 0 512 512;" xml:space="preserve">
<style type="text/css">
	.st0{fill:#FFFFFF;}
</style>
<g>
	<g>
		<path class="st0" d="M504.5,0H7.5C3.4,0,0,3.4,0,7.5v497c0,4.1,3.4,7.5,7.5,7.5h497c4.1,0,7.5-3.4,7.5-7.5V7.5
			C512,3.4,508.6,0,504.5,0z M497,497H15V15h482V497z"/>
	</g>
</g>
<g>
	<g>
		<path class="st0" d="M474.5,30h-437c-4.1,0-7.5,3.4-7.5,7.5v45c0,4.1,3.4,7.5,7.5,7.5s7.5-3.4,7.5-7.5V45h422v422H45V112.5
			c0-4.1-3.4-7.5-7.5-7.5s-7.5,3.4-7.5,7.5v362c0,4.1,3.4,7.5,7.5,7.5h437c4.1,0,7.5-3.4,7.5-7.5v-437C482,33.4,478.6,30,474.5,30z"
			/>
	</g>
</g>
<g>
	<g>
		<path class="st0" d="M270.7,221.7c-3.4-0.8-6.9,0.9-8.4,4.1l-30.8,64.7c-1.1,2.3-0.9,5.1,0.4,7.2s3.8,3.5,6.3,3.5H269
			c4.1,0,7.5-3.4,7.5-7.5V229C276.5,225.5,274.1,222.5,270.7,221.7z M261.5,286.2h-11.4l11.4-24V286.2z"/>
	</g>
</g>
<g>
	<g>
		<path class="st0" d="M316.5,288.5v-148c0-12.9-8.8-24-21.4-26.8c-2-0.4-4-0.7-6.1-0.7c-10.5,0-20.3,6.2-24.8,15.7l-82.5,173.2
			c-4.1,8.6-3.5,18.5,1.6,26.5c5.1,8,13.8,12.8,23.3,12.8h55v30.2c0,15.2,12.3,27.5,27.5,27.5s27.5-12.3,27.5-27.5V339
			c9.8-4.3,16.5-14.1,16.5-25.2C333,302.6,326.4,292.8,316.5,288.5z M307.7,326.1c-3.6,0.6-6.2,3.7-6.2,7.4v38.1
			c0,6.9-5.6,12.5-12.5,12.5s-12.5-5.6-12.5-12.5v-37.8c0-4.1-3.4-7.5-7.5-7.5h-62.5c-4.3,0-8.3-2.2-10.6-5.8
			c-2.3-3.6-2.6-8.2-0.7-12l82.5-173.2c2.1-4.3,6.5-7.1,11.3-7.1c0.9,0,1.9,0.1,2.8,0.3c5.7,1.3,9.7,6.3,9.7,12.2v153.6
			c0,3.6,2.6,6.8,6.2,7.4c6,1.1,10.3,6.2,10.3,12.3C318,319.8,313.7,325,307.7,326.1z"/>
	</g>
</g>
</svg>
