<?xml version="1.0" encoding="iso-8859-1"?>
<!-- Generator: Adobe Illustrator 19.0.0, SVG Export Plug-In . SVG Version: 6.00 Build 0)  -->
<svg version="1.1" id="Capa_1" xmlns="http://www.w3.org/2000/svg" xmlns:xlink="http://www.w3.org/1999/xlink" x="0px" y="0px"
	 viewBox="0 0 512 512" style="enable-background:new 0 0 512 512;" xml:space="preserve">
<g>
	<g>
		<path d="M504.5,0H7.5C3.357,0,0,3.358,0,7.5v497c0,4.142,3.357,7.5,7.5,7.5h497c4.143,0,7.5-3.358,7.5-7.5V7.5
			C512,3.358,508.643,0,504.5,0z M497,497H15V15h482V497z"/>
	</g>
</g>
<g>
	<g>
		<path d="M474.5,30h-437c-4.143,0-7.5,3.358-7.5,7.5v45c0,4.142,3.357,7.5,7.5,7.5s7.5-3.358,7.5-7.5V45h422v422H45V112.5
			c0-4.142-3.357-7.5-7.5-7.5s-7.5,3.358-7.5,7.5v362c0,4.142,3.357,7.5,7.5,7.5h437c4.143,0,7.5-3.358,7.5-7.5v-437
			C482,33.358,478.643,30,474.5,30z"/>
	</g>
</g>
<g>
	<g>
		<path d="M256,153c-20.402,0-37,16.598-37,37v16.5c0,20.402,16.598,37,37,37c20.402,0,37-16.598,37-37V190
			C293,169.598,276.402,153,256,153z M278,206.5c0,12.131-9.869,22-22,22c-12.131,0-22-9.869-22-22V190c0-12.131,9.869-22,22-22
			s22,9.869,22,22V206.5z"/>
	</g>
</g>
<g>
	<g>
		<path d="M256,113c-42.458,0-77,34.542-77,77v16.5c0,42.458,34.542,77,77,77c7.545,0,14.907-1.071,22-3.194V322
			c0,12.131-9.869,22-22,22c-12.131,0-22-9.869-22-22c0-15.164-12.337-27.5-27.5-27.5c-15.163,0-27.5,12.336-27.5,27.5
			c0,42.458,34.542,77,77,77s77-34.542,77-77V190C333,147.542,298.458,113,256,113z M318,322c0,34.187-27.813,62-62,62
			s-62-27.813-62-62c0-6.893,5.607-12.5,12.5-12.5S219,315.107,219,322c0,20.402,16.598,37,37,37c20.402,0,37-16.598,37-37v-52.576
			c0-2.568-1.313-4.957-3.481-6.332c-2.169-1.377-4.89-1.547-7.212-0.454c-8.265,3.89-17.116,5.862-26.307,5.862
			c-34.187,0-62-27.813-62-62V190c0-34.187,27.813-62,62-62s62,27.813,62,62V322z"/>
	</g>
</g>
<g>
</g>
<g>
</g>
<g>
</g>
<g>
</g>
<g>
</g>
<g>
</g>
<g>
</g>
<g>
</g>
<g>
</g>
<g>
</g>
<g>
</g>
<g>
</g>
<g>
</g>
<g>
</g>
<g>
</g>
</svg>
