<?xml version="1.0" encoding="utf-8"?>
<!-- Generator: Adobe Illustrator 23.1.1, SVG Export Plug-In . SVG Version: 6.00 Build 0)  -->
<svg version="1.1" id="Capa_1" xmlns="http://www.w3.org/2000/svg" xmlns:xlink="http://www.w3.org/1999/xlink" x="0px" y="0px"
	 viewBox="0 0 512 512" style="enable-background:new 0 0 512 512;" xml:space="preserve">
<style type="text/css">
	.st0{fill:#FFFFFF;}
</style>
<g>
	<g>
		<path class="st0" d="M504.5,0H7.5C3.4,0,0,3.4,0,7.5v497c0,4.1,3.4,7.5,7.5,7.5h497c4.1,0,7.5-3.4,7.5-7.5V7.5
			C512,3.4,508.6,0,504.5,0z M497,497H15V15h482V497z"/>
	</g>
</g>
<g>
	<g>
		<path class="st0" d="M474.5,30h-437c-4.1,0-7.5,3.4-7.5,7.5v45c0,4.1,3.4,7.5,7.5,7.5s7.5-3.4,7.5-7.5V45h422v422H45V112.5
			c0-4.1-3.4-7.5-7.5-7.5s-7.5,3.4-7.5,7.5v362c0,4.1,3.4,7.5,7.5,7.5h437c4.1,0,7.5-3.4,7.5-7.5v-437C482,33.4,478.6,30,474.5,30z"
			/>
	</g>
</g>
<g>
	<g>
		<path class="st0" d="M274.8,114.4c-2.8-1-5.8-1.4-8.8-1.4c-8.6,0-16.8,4.1-21.9,10.9l-50,66c-9.2,12.1-6.8,29.4,5.3,38.5
			c4.8,3.7,10.6,5.6,16.6,5.6c8.7,0,16.7-4,21.9-10.9l0.6-0.8v149.2c0,15.2,12.3,27.5,27.5,27.5c15.2,0,27.5-12.3,27.5-27.5v-231
			C293.5,128.7,286,118.2,274.8,114.4z M278.5,371.5c0,6.9-5.6,12.5-12.5,12.5s-12.5-5.6-12.5-12.5V200c0-3.2-2.1-6.1-5.1-7.1
			c-0.8-0.3-1.6-0.4-2.4-0.4c-2.3,0-4.5,1.1-6,3L226,214c-2.4,3.1-6,5-10,5c-2.7,0-5.3-0.9-7.5-2.5c-5.5-4.2-6.6-12-2.4-17.5l50-66
			c2.3-3.1,6.1-5,10-5c1.4,0,2.7,0.2,4,0.7c5.1,1.7,8.5,6.5,8.5,11.8L278.5,371.5L278.5,371.5z"/>
	</g>
</g>
</svg>
