<?xml version="1.0" encoding="iso-8859-1"?>
<!-- Generator: Adobe Illustrator 19.0.0, SVG Export Plug-In . SVG Version: 6.00 Build 0)  -->
<svg version="1.1" id="Capa_1" xmlns="http://www.w3.org/2000/svg" xmlns:xlink="http://www.w3.org/1999/xlink" x="0px" y="0px"
	 viewBox="0 0 512 512" style="enable-background:new 0 0 512 512;" xml:space="preserve">
<g>
	<g>
		<path d="M504.5,0H7.5C3.358,0,0,3.358,0,7.5v497c0,4.142,3.358,7.5,7.5,7.5h497c4.142,0,7.5-3.358,7.5-7.5V7.5
			C512,3.358,508.642,0,504.5,0z M497,497H15V15h482V497z"/>
	</g>
</g>
<g>
	<g>
		<path d="M474.5,30h-437c-4.142,0-7.5,3.358-7.5,7.5v45c0,4.142,3.358,7.5,7.5,7.5c4.142,0,7.5-3.358,7.5-7.5V45h422v422H45V112.5
			c0-4.142-3.358-7.5-7.5-7.5c-4.142,0-7.5,3.358-7.5,7.5v362c0,4.142,3.358,7.5,7.5,7.5h437c4.142,0,7.5-3.358,7.5-7.5v-437
			C482,33.358,478.642,30,474.5,30z"/>
	</g>
</g>
<g>
	<g>
		<path d="M305.5,228.501h-7.794l33.07-77.167c3.652-8.522,2.786-18.231-2.318-25.971C323.354,117.621,314.772,113,305.5,113h-99
			c-15.164,0-27.5,12.336-27.5,27.5s12.336,27.5,27.5,27.5h57.295l-25.928,60.5H206.5c-15.164,0-27.5,12.336-27.5,27.5
			s12.336,27.5,27.5,27.5h7.797l-33.068,77.163c-5.973,13.937,0.506,30.136,14.444,36.109c3.45,1.479,7.091,2.229,10.82,2.229
			c11.023,0,20.949-6.544,25.289-16.672l42.354-98.828H305.5c15.164,0,27.5-12.336,27.5-27.5S320.664,228.501,305.5,228.501z
			 M305.5,268.501h-36.311c-3,0-5.712,1.788-6.894,4.546l-44.302,103.374c-1.974,4.605-6.487,7.581-11.5,7.581l-0.002,7.5V384
			c-1.687,0-3.339-0.342-4.911-1.016c-6.335-2.715-9.28-10.078-6.565-16.414l37.549-87.617c0.993-2.317,0.755-4.978-0.632-7.083
			c-1.388-2.104-3.74-3.371-6.261-3.371H206.5c-6.893,0-12.5-5.607-12.5-12.5s5.607-12.5,12.5-12.5h36.313
			c3.001,0.001,5.712-1.787,6.894-4.545l32.356-75.5c0.993-2.317,0.755-4.978-0.632-7.083c-1.388-2.104-3.74-3.371-6.261-3.371
			H206.5c-6.893,0-12.5-5.607-12.5-12.5s5.607-12.5,12.5-12.5h99c4.214,0,8.116,2.101,10.436,5.619
			c2.32,3.519,2.714,7.932,1.054,11.806l-37.551,87.622c-0.993,2.317-0.755,4.978,0.632,7.083c1.388,2.104,3.74,3.371,6.261,3.371
			H305.5c6.893,0,12.5,5.607,12.5,12.5S312.393,268.501,305.5,268.501z"/>
	</g>
</g>
<g>
</g>
<g>
</g>
<g>
</g>
<g>
</g>
<g>
</g>
<g>
</g>
<g>
</g>
<g>
</g>
<g>
</g>
<g>
</g>
<g>
</g>
<g>
</g>
<g>
</g>
<g>
</g>
<g>
</g>
</svg>
