<?xml version="1.0" encoding="utf-8"?>
<!-- Generator: Adobe Illustrator 23.1.1, SVG Export Plug-In . SVG Version: 6.00 Build 0)  -->
<svg version="1.1" id="Capa_1" xmlns="http://www.w3.org/2000/svg" xmlns:xlink="http://www.w3.org/1999/xlink" x="0px" y="0px"
	 viewBox="0 0 512 512" style="enable-background:new 0 0 512 512;" xml:space="preserve">
<style type="text/css">
	.st0{fill:#FFFFFF;}
</style>
<g>
	<g>
		<path class="st0" d="M504.5,0H7.5C3.4,0,0,3.4,0,7.5v497c0,4.1,3.4,7.5,7.5,7.5h497c4.1,0,7.5-3.4,7.5-7.5V7.5
			C512,3.4,508.6,0,504.5,0z M497,497H15V15h482V497z"/>
	</g>
</g>
<g>
	<g>
		<path class="st0" d="M474.5,30h-437c-4.1,0-7.5,3.4-7.5,7.5v45c0,4.1,3.4,7.5,7.5,7.5s7.5-3.4,7.5-7.5V45h422v422H45V112.5
			c0-4.1-3.4-7.5-7.5-7.5s-7.5,3.4-7.5,7.5v362c0,4.1,3.4,7.5,7.5,7.5h437c4.1,0,7.5-3.4,7.5-7.5v-437C482,33.4,478.6,30,474.5,30z"
			/>
	</g>
</g>
<g>
	<g>
		<path class="st0" d="M305.5,228.5h-7.8l33.1-77.2c3.7-8.5,2.8-18.2-2.3-26c-5.1-7.7-13.7-12.4-23-12.4h-99
			c-15.2,0-27.5,12.3-27.5,27.5s12.3,27.5,27.5,27.5h57.3l-25.9,60.5h-31.4c-15.2,0-27.5,12.3-27.5,27.5s12.3,27.5,27.5,27.5h7.8
			l-33.1,77.2c-6,13.9,0.5,30.1,14.4,36.1c3.4,1.5,7.1,2.2,10.8,2.2c11,0,20.9-6.5,25.3-16.7l42.4-98.8h31.4
			c15.2,0,27.5-12.3,27.5-27.5S320.7,228.5,305.5,228.5z M305.5,268.5h-36.3c-3,0-5.7,1.8-6.9,4.5L218,376.4
			c-2,4.6-6.5,7.6-11.5,7.6l0,7.5V384c-1.7,0-3.3-0.3-4.9-1c-6.3-2.7-9.3-10.1-6.6-16.4l37.5-87.6c1-2.3,0.8-5-0.6-7.1
			c-1.4-2.1-3.7-3.4-6.3-3.4h-19.2c-6.9,0-12.5-5.6-12.5-12.5s5.6-12.5,12.5-12.5h36.3c3,0,5.7-1.8,6.9-4.5l32.4-75.5
			c1-2.3,0.8-5-0.6-7.1c-1.4-2.1-3.7-3.4-6.3-3.4h-68.7c-6.9,0-12.5-5.6-12.5-12.5s5.6-12.5,12.5-12.5h99c4.2,0,8.1,2.1,10.4,5.6
			c2.3,3.5,2.7,7.9,1.1,11.8L279.4,233c-1,2.3-0.8,5,0.6,7.1c1.4,2.1,3.7,3.4,6.3,3.4h19.2c6.9,0,12.5,5.6,12.5,12.5
			S312.4,268.5,305.5,268.5z"/>
	</g>
</g>
</svg>
