<?xml version="1.0" encoding="iso-8859-1"?>
<!-- Generator: Adobe Illustrator 19.0.0, SVG Export Plug-In . SVG Version: 6.00 Build 0)  -->
<svg version="1.1" id="Capa_1" xmlns="http://www.w3.org/2000/svg" xmlns:xlink="http://www.w3.org/1999/xlink" x="0px" y="0px"
	 viewBox="0 0 512 512" style="enable-background:new 0 0 512 512;" xml:space="preserve">
<g>
	<g>
		<path d="M504.5,0H7.5C3.358,0,0,3.358,0,7.5v497c0,4.142,3.358,7.5,7.5,7.5h497c4.142,0,7.5-3.358,7.5-7.5V7.5
			C512,3.358,508.642,0,504.5,0z M497,497H15V15h482V497z"/>
	</g>
</g>
<g>
	<g>
		<path d="M474.5,30h-437c-4.142,0-7.5,3.358-7.5,7.5v45c0,4.142,3.358,7.5,7.5,7.5c4.142,0,7.5-3.358,7.5-7.5V45h422v422H45V112.5
			c0-4.142-3.358-7.5-7.5-7.5c-4.142,0-7.5,3.358-7.5,7.5v362c0,4.142,3.358,7.5,7.5,7.5h437c4.142,0,7.5-3.358,7.5-7.5v-437
			C482,33.358,478.642,30,474.5,30z"/>
	</g>
</g>
<g>
	<g>
		<path d="M256,268.5c-20.402,0-37,16.598-37,37V322c0,20.402,16.598,37,37,37c20.402,0,37-16.598,37-37v-16.5
			C293,285.098,276.402,268.5,256,268.5z M278,322c0,12.131-9.869,22-22,22c-12.131,0-22-9.869-22-22v-16.5c0-12.131,9.869-22,22-22
			s22,9.869,22,22V322z"/>
	</g>
</g>
<g>
	<g>
		<path d="M256,228.5c-7.545,0-14.907,1.071-22,3.194V190c0-12.131,9.869-22,22-22c12.131,0,22,9.869,22,22
			c0,15.164,12.336,27.5,27.5,27.5S333,205.164,333,190c0-42.458-34.542-77-77-77s-77,34.542-77,77v132c0,42.458,34.542,77,77,77
			s77-34.542,77-77v-16.5C333,263.042,298.458,228.5,256,228.5z M317.999,322c0,34.187-27.813,62-62,62s-62-27.813-62-62V190
			c0-34.187,27.813-62,62-62s62,27.813,62,62c0,6.893-5.607,12.5-12.5,12.5S293,196.893,293,190c0-20.402-16.598-37-37-37
			c-20.402,0-37,16.598-37,37v52.576c0,2.568,1.313,4.957,3.481,6.332c2.168,1.375,4.889,1.546,7.212,0.454
			c8.265-3.89,17.115-5.862,26.306-5.862c34.187,0,62,27.813,62,62V322z"/>
	</g>
</g>
<g>
</g>
<g>
</g>
<g>
</g>
<g>
</g>
<g>
</g>
<g>
</g>
<g>
</g>
<g>
</g>
<g>
</g>
<g>
</g>
<g>
</g>
<g>
</g>
<g>
</g>
<g>
</g>
<g>
</g>
</svg>
