<?xml version="1.0" encoding="utf-8"?>
<!-- Generator: Adobe Illustrator 23.1.1, SVG Export Plug-In . SVG Version: 6.00 Build 0)  -->
<svg version="1.1" id="Capa_1" xmlns="http://www.w3.org/2000/svg" xmlns:xlink="http://www.w3.org/1999/xlink" x="0px" y="0px"
	 viewBox="0 0 512 512" style="enable-background:new 0 0 512 512;" xml:space="preserve">
<style type="text/css">
	.st0{fill:#FFFFFF;}
</style>
<g>
	<g>
		<path class="st0" d="M504.5,0H7.5C3.4,0,0,3.4,0,7.5v497c0,4.1,3.4,7.5,7.5,7.5h497c4.1,0,7.5-3.4,7.5-7.5V7.5
			C512,3.4,508.6,0,504.5,0z M497,497H15V15h482V497z"/>
	</g>
</g>
<g>
	<g>
		<path class="st0" d="M474.5,30h-437c-4.1,0-7.5,3.4-7.5,7.5v45c0,4.1,3.4,7.5,7.5,7.5s7.5-3.4,7.5-7.5V45h422v422H45V112.5
			c0-4.1-3.4-7.5-7.5-7.5s-7.5,3.4-7.5,7.5v362c0,4.1,3.4,7.5,7.5,7.5h437c4.1,0,7.5-3.4,7.5-7.5v-437C482,33.4,478.6,30,474.5,30z"
			/>
	</g>
</g>
<g>
	<g>
		<path class="st0" d="M333,190c0-42.5-34.5-77-77-77s-77,34.5-77,77c0,15.2,12.3,27.5,27.5,27.5S234,205.2,234,190
			c0-12.1,9.9-22,22-22c12.1,0,22,9.9,22,22v16.5c0,12.1-9.9,22-22,22c-15.2,0-27.5,12.3-27.5,27.5s12.3,27.5,27.5,27.5
			c12.1,0,22,9.9,22,22V322c0,12.1-9.9,22-22,22c-12.1,0-22-9.9-22-22c0-15.2-12.3-27.5-27.5-27.5S179,306.8,179,322
			c0,42.5,34.5,77,77,77s77-34.5,77-77v-16.5c0-18.3-6.4-35.6-18-49.5c11.7-13.9,18-31.2,18-49.5V190z M318,206.5
			c0,16.7-6.6,32.4-18.5,44.2c-1.4,1.4-2.2,3.3-2.2,5.3c0,2,0.8,3.9,2.2,5.3c11.9,11.8,18.5,27.4,18.5,44.2V322
			c0,34.2-27.8,62-62,62s-62-27.8-62-62c0-6.9,5.6-12.5,12.5-12.5S219,315.1,219,322c0,20.4,16.6,37,37,37s37-16.6,37-37v-16.5
			c0-20.4-16.6-37-37-37c-6.9,0-12.5-5.6-12.5-12.5s5.6-12.5,12.5-12.5c20.4,0,37-16.6,37-37V190c0-20.4-16.6-37-37-37
			s-37,16.6-37,37c0,6.9-5.6,12.5-12.5,12.5S194,196.9,194,190c0-34.2,27.8-62,62-62s62,27.8,62,62V206.5z"/>
	</g>
</g>
</svg>
