<?xml version="1.0" encoding="utf-8"?>
<!-- Generator: Adobe Illustrator 23.1.1, SVG Export Plug-In . SVG Version: 6.00 Build 0)  -->
<svg version="1.1" id="Capa_1" xmlns="http://www.w3.org/2000/svg" xmlns:xlink="http://www.w3.org/1999/xlink" x="0px" y="0px"
	 viewBox="0 0 512 512" style="enable-background:new 0 0 512 512;" xml:space="preserve">
<style type="text/css">
	.st0{fill:#FFFFFF;}
</style>
<g>
	<g>
		<path class="st0" d="M504.5,0H7.5C3.4,0,0,3.4,0,7.5v497c0,4.1,3.4,7.5,7.5,7.5h497c4.1,0,7.5-3.4,7.5-7.5V7.5
			C512,3.4,508.6,0,504.5,0z M497,497H15V15h482V497z"/>
	</g>
</g>
<g>
	<g>
		<path class="st0" d="M474.5,30h-437c-4.1,0-7.5,3.4-7.5,7.5v45c0,4.1,3.4,7.5,7.5,7.5s7.5-3.4,7.5-7.5V45h422v422H45V112.5
			c0-4.1-3.4-7.5-7.5-7.5s-7.5,3.4-7.5,7.5v362c0,4.1,3.4,7.5,7.5,7.5h437c4.1,0,7.5-3.4,7.5-7.5v-437C482,33.4,478.6,30,474.5,30z"
			/>
	</g>
</g>
<g>
	<g>
		<path class="st0" d="M305.5,344h-50.9l67.7-114.9c7-11.8,10.6-25.3,10.6-39.1c0-42.5-34.5-77-77-77s-77,34.5-77,77
			c0,15.2,12.3,27.5,27.5,27.5S234,205.2,234,190c0-12.1,9.9-22,22-22c12.1,0,22,9.9,22,22c0,3.9-1,7.8-3,11.1l-92.2,156.4
			c-5,8.5-5.1,19.1-0.2,27.6c4.9,8.5,14,13.9,23.9,13.9h99c15.2,0,27.5-12.3,27.5-27.5S320.7,344,305.5,344z M305.5,384h-99
			c-4.5,0-8.6-2.4-10.9-6.3c-2.2-3.9-2.2-8.7,0.1-12.5l92.2-156.4c3.3-5.7,5.1-12.2,5.1-18.8c0-20.4-16.6-37-37-37s-37,16.6-37,37
			c0,6.9-5.6,12.5-12.5,12.5S194,196.9,194,190c0-34.2,27.8-62,62-62s62,27.8,62,62c0,11.1-3,21.9-8.6,31.4L235,347.7
			c-1.4,2.3-1.4,5.2-0.1,7.5s3.8,3.8,6.5,3.8h64c6.9,0,12.5,5.6,12.5,12.5S312.4,384,305.5,384z"/>
	</g>
</g>
</svg>
